<?xml version="1.0" ?><svg viewBox="0 0 24 24" xmlns="http://www.w3.org/2000/svg"><defs><style>.cls-1{fill:#ffeabb;}.cls-2{fill:#f7bf75;}.cls-3{fill:#96ccee;}.cls-4{fill:#f94060;}.cls-5{fill:#f1734d;}</style></defs><g id="Inflation"><rect class="cls-1" height="12" width="20" x="1.86" y="8.79"/><path class="cls-2" d="M21.86,17.29a3.5,3.5,0,0,0-3.5,3.5h3.5Z"/><path class="cls-2" d="M1.86,17.29v3.5h3.5a3.5,3.5,0,0,0-3.5-3.5"/><path class="cls-2" d="M18.36,8.79a3.5,3.5,0,0,0,3.5,3.5V8.79Z"/><path class="cls-2" d="M1.86,8.79v3.5a3.49,3.49,0,0,0,3.5-3.5Z"/><path class="cls-3" d="M8.56,3.21a1,1,0,0,0-.76.33L6.2,5.35a1,1,0,0,0,.09,1.41,1,1,0,0,0,1.26,0V9.49a1,1,0,1,0,2,0V6.81a1,1,0,0,0,1.26,0,1,1,0,0,0,.08-1.41L9.3,3.54a1,1,0,0,0-.74-.33"/><path class="cls-4" d="M15.17,11.38a1,1,0,0,0,.76-.34l1.6-1.8a1,1,0,0,0-1.35-1.46V5.1a1,1,0,0,0-2,0V7.77a1,1,0,0,0-1.35,1.47l1.6,1.8a1,1,0,0,0,.74.34"/><rect class="cls-2" height="12" width="1.96" x="19.9" y="8.79"/><path class="cls-5" d="M19.9,8.79v2.9a3.47,3.47,0,0,0,2,.6V8.79Zm2,8.5a3.47,3.47,0,0,0-2,.61v2.89h2Z"/><path d="M21.86,8.29H18.25a1.45,1.45,0,0,0-.43-.8l-.06,0a1.51,1.51,0,0,0-1.08-.36v-2a1.5,1.5,0,1,0-3,0v2a1.5,1.5,0,0,0-1.57,1.21H10.05V7.5a1.4,1.4,0,0,0,1.09-.37A1.5,1.5,0,0,0,11.28,5V5l-1.6-1.8a1.48,1.48,0,0,0-1.11-.5,1.57,1.57,0,0,0-1.13.5L5.83,5A1.51,1.51,0,0,0,5.45,6.1a1.45,1.45,0,0,0,.48,1l0,0a1.49,1.49,0,0,0,1.08.35v.79H1.86a.5.5,0,0,0-.5.5v12a.5.5,0,0,0,.5.5h20a.5.5,0,0,0,.5-.5v-12A.5.5,0,0,0,21.86,8.29ZM13.25,8.2a.5.5,0,0,1,.63,0,.47.47,0,0,0,.52.05.5.5,0,0,0,.28-.45V5.1a.5.5,0,0,1,.5-.5.5.5,0,0,1,.5.5V7.78a.5.5,0,0,0,.8.4.51.51,0,0,1,.63,0h0a.47.47,0,0,1,.17.33.5.5,0,0,1-.13.37l-1.6,1.8a.48.48,0,0,1-.37.17h0a.5.5,0,0,1-.37-.17L13.22,8.92v0a.47.47,0,0,1-.13-.36A.51.51,0,0,1,13.25,8.2ZM6.61,6.38h0A.49.49,0,0,1,6.45,6a.48.48,0,0,1,.12-.36l1.6-1.81a.55.55,0,0,1,.38-.16h0a.51.51,0,0,1,.37.16L10.5,5.65l0,0a.48.48,0,0,1,.12.36.44.44,0,0,1-.16.34.5.5,0,0,1-.63,0,.53.53,0,0,0-.53,0,.5.5,0,0,0-.27.45V9.49a.51.51,0,0,1-.5.5.5.5,0,0,1-.5-.5V6.81a.5.5,0,0,0-.28-.45.44.44,0,0,0-.22-.05.45.45,0,0,0-.3.1A.51.51,0,0,1,6.61,6.38ZM2.36,9.29H4.81a3,3,0,0,1-2.45,2.45Zm0,11V17.84a3,3,0,0,1,2.45,2.45Zm19,0H18.91a3,3,0,0,1,2.45-2.45Zm0-3.45a4,4,0,0,0-3.45,3.45H5.81a4,4,0,0,0-3.45-3.45v-4.1A4,4,0,0,0,5.81,9.29H7.05v.2a1.5,1.5,0,1,0,3,0v-.2H12.3a1,1,0,0,0,.12.23l0,.05,1.6,1.8a1.5,1.5,0,0,0,1.1.51h0a1.48,1.48,0,0,0,1.12-.51l1.6-1.8,0-.05a4,4,0,0,0,3.42,3.22Zm0-5.1a3,3,0,0,1-2.45-2.45h2.45Z"/><path d="M11.86,15.29a.44.44,0,0,1,.43.44.44.44,0,0,1-.74.3.85.85,0,0,1-.09-.14.5.5,0,0,0-.92.39,1.33,1.33,0,0,0,.31.46,1.3,1.3,0,0,0,.51.32v.23a.5.5,0,0,0,.5.5.5.5,0,0,0,.5-.5v-.23a1.42,1.42,0,0,0,.93-1.33,1.44,1.44,0,0,0-1.43-1.44.43.43,0,0,1-.43-.43.45.45,0,0,1,.74-.3.34.34,0,0,1,.09.14.5.5,0,0,0,.92-.4,1.39,1.39,0,0,0-.31-.45,1.3,1.3,0,0,0-.51-.32v-.24a.5.5,0,0,0-.5-.5.51.51,0,0,0-.5.5v.23a1.45,1.45,0,0,0-.93,1.34A1.43,1.43,0,0,0,11.86,15.29Z"/><path d="M13.42,18.49H10.3a.5.5,0,0,0-.5.5.5.5,0,0,0,.5.5h3.12a.5.5,0,0,0,.5-.5A.5.5,0,0,0,13.42,18.49Z"/></g></svg>